<?xml version="1.0" encoding="UTF-8"?><svg id="Layer_1" xmlns="http://www.w3.org/2000/svg" width="1578.4" height="273.61" viewBox="0 0 1578.4 273.61"><defs><style>.cls-1{fill:#ba0606;stroke-width:0px;}</style></defs><path class="cls-1" d="M73.58,94.39v87.58c0,19.9-.52,34.38-1.54,43.47-1.03,9.08-3.17,17.57-6.41,25.46-3.24,7.89-7.16,13.57-11.74,17.03-4.58,3.46-9.7,5.19-15.36,5.19-7.46,0-13.67-1.81-18.61-5.43-4.94-3.62-8.88-9.27-11.81-16.95-2.93-7.68-5.02-15.76-6.25-24.25-1.24-8.49-1.85-21.98-1.85-40.47v-91.64c0-24.11.99-42.17,2.97-54.17,1.98-12,5.92-21.62,11.81-28.87C20.68,4.11,27.82.49,36.21.49c6.84,0,12.97,2.51,18.37,7.54,5.4,5.03,9.44,11.17,12.12,18.41,2.68,7.25,4.49,15.41,5.44,24.49.95,9.08,1.43,23.57,1.43,43.47ZM42.39,72.34c0-13.95-.32-22.68-.97-26.19-.64-3.51-2.15-5.27-4.52-5.27s-3.85,1.87-4.59,5.6c-.75,3.73-1.12,12.35-1.12,25.87v128.13c0,15.25.35,24.44,1.04,27.57.69,3.14,2.2,4.7,4.52,4.7s3.83-1.84,4.56-5.51c.72-3.67,1.08-11.95,1.08-24.81V72.34Z"/><path class="cls-1" d="M152.02,223.33v44.76h-68.64l.02-37.47c20.33-69.85,32.41-113.07,36.25-129.67,3.83-16.6,5.75-29.54,5.75-38.84,0-7.14-.58-12.46-1.74-15.98-1.16-3.51-2.93-5.27-5.3-5.27s-4.14,1.95-5.3,5.84c-1.16,3.89-1.74,11.62-1.74,23.19v24.98h-27.95v-9.57c0-14.7.36-26.3,1.08-34.79.72-8.49,2.5-16.84,5.33-25.06,2.83-8.22,6.51-14.43,11.04-18.65,4.53-4.22,9.96-6.33,16.29-6.33,12.4,0,21.78,6.46,28.14,19.38,6.36,12.92,9.53,29.28,9.53,49.06,0,15.03-1.79,30.92-5.37,47.68-3.58,16.76-14.12,52.33-31.62,106.72h34.2Z"/><path class="cls-1" d="M267.52,102.18h-32.5v-23.84c0-15.03-.31-24.43-.93-28.22-.62-3.78-2.08-5.68-4.4-5.68-2.01,0-3.37,1.62-4.09,4.87-.72,3.24-1.08,11.57-1.08,24.98v126.02c0,11.79.36,19.54,1.08,23.27.72,3.73,2.16,5.6,4.32,5.6,2.37,0,3.98-2.11,4.83-6.33s1.27-12.43,1.27-24.65v-31.14h-6.56v-39.9h38.06v140.94h-20.43l-3.01-18.81c-2.21,8.11-5.01,14.19-8.38,18.25-3.37,4.05-7.35,6.08-11.94,6.08-5.46,0-10.57-2.79-15.34-8.35-4.77-5.57-8.38-12.46-10.86-20.68-2.47-8.22-4.02-16.84-4.64-25.87-.62-9.03-.93-22.57-.93-40.63v-78.01c0-25.08.64-43.3,1.93-54.66,1.29-11.35,4.98-21.76,11.08-31.22,6.1-9.46,13.99-14.19,23.66-14.19s17.42,4.11,23.7,12.33c6.28,8.22,10.37,17.98,12.28,29.27,1.9,11.3,2.86,27.71,2.86,49.22v11.35Z"/><path class="cls-1" d="M280.1,5.51h23.01c15.34,0,25.72,1.24,31.15,3.73,5.43,2.49,9.86,8.84,13.28,19.06,3.42,10.22,5.13,26.52,5.13,48.9,0,20.44-1.21,34.17-3.63,41.2-2.42,7.03-7.18,11.25-14.28,12.65,6.43,3.35,10.76,7.84,12.97,13.46,2.21,5.62,3.59,10.79,4.13,15.49.54,4.7.81,17.65.81,38.84v69.25h-30.19v-87.26c0-14.05-.53-22.76-1.58-26.11-1.06-3.35-3.82-5.03-8.3-5.03v118.4h-32.5V5.51ZM312.61,50.44v58.39c3.65,0,6.21-1.05,7.68-3.16s2.2-8.95,2.2-20.52v-14.43c0-8.32-.71-13.79-2.12-16.38-1.42-2.6-4-3.89-7.76-3.89Z"/><path class="cls-1" d="M439.15,5.51v175.49c0,19.9-.31,33.87-.93,41.93-.62,8.06-2.45,16.33-5.48,24.81-3.04,8.49-7.04,14.92-12.01,19.3-4.97,4.38-10.82,6.57-17.56,6.57-7.46,0-14.05-2.6-19.76-7.78-5.71-5.19-9.99-11.95-12.82-20.27-2.83-8.33-4.5-17.11-5.02-26.36-.52-9.24-.77-28.68-.77-58.31V5.51h32.5v196.9c0,11.46.3,18.79.89,21.98.59,3.19,1.79,4.78,3.59,4.78,2.06,0,3.38-1.76,3.98-5.27.59-3.51.89-11.81.89-24.9V5.51h32.5Z"/><path class="cls-1" d="M524.31,5.51v262.58h-28.49l-16.91-119.37v119.37h-27.18V5.51h27.18l18.22,118.24V5.51h27.18Z"/><path class="cls-1" d="M537.36,5.51h24.32c15.7,0,26.31,1.52,31.85,4.54,5.53,3.03,9.74,8,12.62,14.92,2.88,6.92,4.68,14.62,5.4,23.11.72,8.49,1.08,25.17,1.08,50.03v91.96c0,23.57-.53,39.33-1.58,47.28-1.06,7.95-2.9,14.17-5.52,18.65-2.63,4.49-5.87,7.62-9.73,9.41-3.86,1.78-9.68,2.68-17.45,2.68h-41V5.51ZM569.86,50.44v172.73c4.68,0,7.57-1.97,8.65-5.92,1.08-3.95,1.62-14.68,1.62-32.19v-102.02c0-11.89-.18-19.52-.54-22.87-.36-3.35-1.18-5.81-2.47-7.38-1.29-1.57-3.71-2.35-7.26-2.35Z"/><path class="cls-1" d="M657.26,5.51v210.03h19.76v52.55h-52.27V5.51h32.5Z"/><path class="cls-1" d="M790.75,5.51v52.55h-21.85v49.79h20.54v49.95h-20.54v57.74h23.39v52.55h-55.9v-47.2h-18.64l-5.29,47.2h-31.04L714.4,5.51h76.35ZM736.39,54.5l-13.82,119.86h13.82V54.5Z"/><path class="cls-1" d="M876.21,102.18h-32.5v-23.84c0-15.03-.31-24.43-.93-28.22-.62-3.78-2.08-5.68-4.4-5.68-2.01,0-3.37,1.62-4.09,4.87-.72,3.24-1.08,11.57-1.08,24.98v126.02c0,11.79.36,19.54,1.08,23.27.72,3.73,2.16,5.6,4.32,5.6,2.37,0,3.98-2.11,4.83-6.33.85-4.22,1.27-12.43,1.27-24.65v-31.14h-6.56v-39.9h38.06v140.94h-20.43l-3.01-18.81c-2.21,8.11-5.01,14.19-8.38,18.25-3.37,4.05-7.35,6.08-11.94,6.08-5.46,0-10.57-2.79-15.34-8.35-4.77-5.57-8.38-12.46-10.86-20.68-2.47-8.22-4.02-16.84-4.64-25.87-.62-9.03-.93-22.57-.93-40.63v-78.01c0-25.08.64-43.3,1.93-54.66,1.29-11.35,4.98-21.76,11.08-31.22,6.1-9.46,13.99-14.19,23.66-14.19s17.42,4.11,23.7,12.33c6.28,8.22,10.37,17.98,12.28,29.27,1.9,11.3,2.86,27.71,2.86,49.22v11.35Z"/><path class="cls-1" d="M963.38,102.18h-32.5v-23.84c0-15.03-.31-24.43-.93-28.22-.62-3.78-2.08-5.68-4.4-5.68-2.01,0-3.37,1.62-4.09,4.87-.72,3.24-1.08,11.57-1.08,24.98v126.02c0,11.79.36,19.54,1.08,23.27.72,3.73,2.16,5.6,4.32,5.6,2.37,0,3.98-2.11,4.83-6.33.85-4.22,1.27-12.43,1.27-24.65v-31.14h-6.56v-39.9h38.06v140.94h-20.43l-3.01-18.81c-2.21,8.11-5.01,14.19-8.38,18.25-3.37,4.05-7.35,6.08-11.94,6.08-5.46,0-10.57-2.79-15.34-8.35-4.77-5.57-8.38-12.46-10.86-20.68-2.47-8.22-4.02-16.84-4.64-25.87-.62-9.03-.93-22.57-.93-40.63v-78.01c0-25.08.64-43.3,1.93-54.66,1.29-11.35,4.98-21.76,11.08-31.22,6.1-9.46,13.99-14.19,23.66-14.19s17.42,4.11,23.7,12.33c6.28,8.22,10.37,17.98,12.28,29.27,1.9,11.3,2.86,27.71,2.86,49.22v11.35Z"/><path class="cls-1" d="M975.96,5.51h54.2v52.55h-21.69v49.79h20.31v49.95h-20.31v57.74h23.86v52.55h-56.36V5.51Z"/><path class="cls-1" d="M1114.24,5.51v262.58h-28.49l-16.91-119.37v119.37h-27.18V5.51h27.18l18.22,118.24V5.51h27.18Z"/><path class="cls-1" d="M1127.29,5.51h24.32c15.7,0,26.31,1.52,31.85,4.54,5.53,3.03,9.74,8,12.62,14.92,2.88,6.92,4.68,14.62,5.4,23.11.72,8.49,1.08,25.17,1.08,50.03v91.96c0,23.57-.53,39.33-1.58,47.28-1.06,7.95-2.9,14.17-5.52,18.65-2.63,4.49-5.87,7.62-9.73,9.41-3.86,1.78-9.68,2.68-17.45,2.68h-41V5.51ZM1159.79,50.44v172.73c4.68,0,7.57-1.97,8.65-5.92,1.08-3.95,1.62-14.68,1.62-32.19v-102.02c0-11.89-.18-19.52-.54-22.87-.36-3.35-1.18-5.81-2.47-7.38-1.29-1.57-3.71-2.35-7.26-2.35Z"/><path class="cls-1" d="M1214.68,5.51h54.2v52.55h-21.69v49.79h20.31v49.95h-20.31v57.74h23.86v52.55h-56.36V5.51Z"/><path class="cls-1" d="M1430.63,5.51l-14.47,262.58h-40.58c-3.72-40.34-6.99-86.24-9.84-137.7-1.3,22.06-4.32,67.96-9.06,137.7h-40.35l-14.55-262.58h31.58l3.43,91.62,3.32,88.57c1.2-45.84,4.19-105.9,8.99-180.19h33.75c.45,7.68,1.63,36.55,3.55,86.61l3.59,99.91c1.85-63.56,4.87-125.73,9.07-186.52h31.58Z"/><path class="cls-1" d="M1437.04,5.51h54.2v52.55h-21.69v49.79h20.31v49.95h-20.31v57.74h23.86v52.55h-56.36V5.51Z"/><path class="cls-1" d="M1502.74,5.51h32.43c10.24,0,18,1.68,23.28,5.03,5.27,3.35,9.53,10.13,12.78,20.34,3.24,10.21,4.86,26.66,4.86,49.35,0,15.34-1.15,26.04-3.44,32.09-2.29,6.05-6.81,10.7-13.55,13.94,7.51,3.57,12.61,9.49,15.29,17.77,2.68,8.28,4.01,20.96,4.01,38.06v24.34c0,17.74-.97,30.89-2.9,39.43-1.93,8.55-5.01,14.39-9.23,17.53-4.22,3.14-12.87,4.71-25.94,4.71h-37.6V5.51ZM1535.25,50.44v58.39c1.39-.11,2.47-.16,3.24-.16,3.19,0,5.22-1.65,6.1-4.95.87-3.3,1.31-12.73,1.31-28.3,0-8.22-.36-13.97-1.08-17.27-.72-3.3-1.66-5.38-2.82-6.24-1.16-.86-3.41-1.35-6.76-1.46ZM1535.25,149.7v73.47c4.58-.32,7.5-1.84,8.76-4.54,1.26-2.7,1.89-9.35,1.89-19.95v-24.49c0-11.24-.57-18.06-1.7-20.44-1.13-2.38-4.12-3.73-8.96-4.05Z"/></svg>