<?xml version="1.0" encoding="UTF-8"?><svg id="Layer_1" xmlns="http://www.w3.org/2000/svg" width="1578" height="402" viewBox="0 0 1578 402"><defs><style>.cls-1{fill:#ba0606;stroke-width:0px;}</style></defs><path class="cls-1" d="M62.63,122.15v86.45c0,19.64-.41,33.94-1.22,42.91-.82,8.96-2.51,17.35-5.07,25.13-2.57,7.79-5.66,13.4-9.29,16.81-3.63,3.42-7.68,5.12-12.16,5.12-5.91,0-10.82-1.79-14.73-5.36-3.91-3.57-7.03-9.15-9.35-16.73-2.32-7.58-3.97-15.55-4.95-23.93-.98-8.38-1.47-21.69-1.47-39.94v-90.46c0-23.8.78-41.62,2.35-53.47,1.57-11.85,4.68-21.35,9.35-28.5,4.66-7.15,10.32-10.73,16.96-10.73,5.42,0,10.27,2.48,14.54,7.44s7.48,11.02,9.59,18.17c2.12,7.15,3.55,15.21,4.31,24.17.75,8.97,1.13,23.27,1.13,42.91ZM37.95,100.38c0-13.77-.25-22.39-.76-25.86-.51-3.47-1.7-5.2-3.57-5.2s-3.05,1.84-3.64,5.52c-.59,3.68-.89,12.19-.89,25.54v126.48c0,15.05.27,24.12.82,27.22.55,3.1,1.74,4.64,3.57,4.64s3.03-1.81,3.61-5.44c.57-3.63.86-11.79.86-24.5V100.38Z"/><path class="cls-1" d="M121.85,34.42v169.38h7.03v44.19h-7.03v45.63h-24.69v-45.63h-29.33v-44.19l21.33-169.38h32.69ZM97.16,203.8v-110.31l-10.91,110.31h10.91Z"/><path class="cls-1" d="M215.83,129.83h-25.73v-23.53c0-14.83-.24-24.12-.73-27.86-.49-3.73-1.65-5.6-3.48-5.6-1.59,0-2.67,1.6-3.24,4.8-.57,3.2-.86,11.42-.86,24.65v124.4c0,11.63.28,19.29.86,22.97.57,3.68,1.71,5.52,3.42,5.52,1.87,0,3.15-2.08,3.82-6.24.67-4.16,1.01-12.27,1.01-24.33v-30.74h-5.19v-39.38h30.12v139.12h-16.17l-2.38-18.57c-1.75,8-3.97,14.01-6.63,18.01-2.67,4-5.82,6-9.45,6-4.32,0-8.37-2.75-12.14-8.25-3.77-5.5-6.63-12.3-8.59-20.41-1.96-8.11-3.18-16.62-3.67-25.54-.49-8.91-.73-22.28-.73-40.1v-77.01c0-24.76.51-42.75,1.53-53.95,1.02-11.21,3.94-21.48,8.77-30.82,4.83-9.34,11.07-14.01,18.73-14.01s13.79,4.06,18.76,12.17c4.97,8.11,8.21,17.75,9.72,28.9,1.51,11.15,2.26,27.35,2.26,48.59v11.21Z"/><path class="cls-1" d="M225.79,34.42h18.21c12.14,0,20.36,1.23,24.66,3.68,4.3,2.46,7.8,8.73,10.51,18.81,2.71,10.09,4.06,26.18,4.06,48.27,0,20.17-.96,33.73-2.87,40.67-1.92,6.94-5.68,11.1-11.3,12.49,5.09,3.31,8.51,7.74,10.27,13.29,1.75,5.55,2.84,10.65,3.27,15.29s.64,17.43.64,38.34v68.36h-23.89v-86.13c0-13.87-.42-22.47-1.25-25.78-.84-3.31-3.02-4.96-6.57-4.96v116.87h-25.73V34.42ZM251.51,78.76v57.64c2.89,0,4.92-1.04,6.08-3.12s1.74-8.83,1.74-20.25v-14.25c0-8.22-.56-13.61-1.68-16.17-1.12-2.56-3.17-3.84-6.14-3.84Z"/><path class="cls-1" d="M351.66,34.42v173.23c0,19.64-.24,33.44-.73,41.39-.49,7.95-1.94,16.12-4.34,24.5-2.4,8.38-5.57,14.73-9.5,19.05-3.93,4.32-8.57,6.48-13.9,6.48-5.91,0-11.12-2.56-15.64-7.68-4.52-5.12-7.9-11.79-10.14-20.01-2.24-8.22-3.56-16.89-3.97-26.02-.41-9.13-.61-28.31-.61-57.55V34.42h25.73v194.36c0,11.31.23,18.55.7,21.69.47,3.15,1.41,4.72,2.84,4.72,1.63,0,2.68-1.73,3.15-5.2.47-3.47.7-11.66.7-24.57V34.42h25.73Z"/><path class="cls-1" d="M419.06,34.42v259.2h-22.55l-13.38-117.83v117.83h-21.51V34.42h21.51l14.42,116.71V34.42h21.51Z"/><path class="cls-1" d="M429.39,34.42h19.25c12.42,0,20.83,1.5,25.21,4.48,4.38,2.99,7.71,7.9,9.99,14.73,2.28,6.83,3.71,14.44,4.28,22.81.57,8.38.86,24.84.86,49.39v90.78c0,23.27-.42,38.82-1.25,46.67-.84,7.84-2.29,13.98-4.37,18.41-2.08,4.43-4.64,7.53-7.7,9.29s-7.66,2.64-13.81,2.64h-32.45V34.42ZM455.12,78.76v170.5c3.71,0,5.99-1.95,6.84-5.84.86-3.9,1.28-14.49,1.28-31.78v-100.7c0-11.74-.14-19.26-.43-22.57-.29-3.31-.94-5.74-1.96-7.28-1.02-1.55-2.93-2.32-5.74-2.32Z"/><path class="cls-1" d="M524.29,34.42v207.33h15.64v51.87h-41.37V34.42h25.73Z"/><path class="cls-1" d="M629.94,34.42v51.87h-17.29v49.15h16.25v49.31h-16.25v56.99h18.51v51.87h-44.24v-46.59h-14.75l-4.19,46.59h-24.56l26.1-259.2h60.43ZM586.92,82.77l-10.94,118.31h10.94v-118.31Z"/><path class="cls-1" d="M697.59,129.83h-25.73v-23.53c0-14.83-.24-24.12-.73-27.86-.49-3.73-1.65-5.6-3.48-5.6-1.59,0-2.67,1.6-3.24,4.8-.57,3.2-.86,11.42-.86,24.65v124.4c0,11.63.28,19.29.86,22.97.57,3.68,1.71,5.52,3.42,5.52,1.87,0,3.15-2.08,3.82-6.24.67-4.16,1.01-12.27,1.01-24.33v-30.74h-5.19v-39.38h30.12v139.12h-16.17l-2.38-18.57c-1.75,8-3.97,14.01-6.63,18.01-2.67,4-5.82,6-9.45,6-4.32,0-8.37-2.75-12.14-8.25-3.77-5.5-6.63-12.3-8.59-20.41-1.96-8.11-3.18-16.62-3.67-25.54-.49-8.91-.73-22.28-.73-40.1v-77.01c0-24.76.51-42.75,1.53-53.95,1.02-11.21,3.94-21.48,8.77-30.82,4.83-9.34,11.07-14.01,18.73-14.01s13.79,4.06,18.76,12.17c4.97,8.11,8.21,17.75,9.72,28.9,1.51,11.15,2.26,27.35,2.26,48.59v11.21Z"/><path class="cls-1" d="M766.57,129.83h-25.73v-23.53c0-14.83-.24-24.12-.73-27.86-.49-3.73-1.65-5.6-3.48-5.6-1.59,0-2.67,1.6-3.24,4.8-.57,3.2-.86,11.42-.86,24.65v124.4c0,11.63.28,19.29.86,22.97.57,3.68,1.71,5.52,3.42,5.52,1.87,0,3.15-2.08,3.82-6.24.67-4.16,1.01-12.27,1.01-24.33v-30.74h-5.19v-39.38h30.12v139.12h-16.17l-2.38-18.57c-1.75,8-3.97,14.01-6.63,18.01-2.67,4-5.82,6-9.45,6-4.32,0-8.37-2.75-12.14-8.25-3.77-5.5-6.63-12.3-8.59-20.41-1.96-8.11-3.18-16.62-3.67-25.54-.49-8.91-.73-22.28-.73-40.1v-77.01c0-24.76.51-42.75,1.53-53.95,1.02-11.21,3.94-21.48,8.77-30.82,4.83-9.34,11.07-14.01,18.73-14.01s13.79,4.06,18.76,12.17c4.97,8.11,8.21,17.75,9.72,28.9,1.51,11.15,2.26,27.35,2.26,48.59v11.21Z"/><path class="cls-1" d="M776.53,34.42h42.9v51.87h-17.17v49.15h16.07v49.31h-16.07v56.99h18.88v51.87h-44.61V34.42Z"/><path class="cls-1" d="M885.97,34.42v259.2h-22.55l-13.38-117.83v117.83h-21.51V34.42h21.51l14.42,116.71V34.42h21.51Z"/><path class="cls-1" d="M896.3,34.42h19.25c12.42,0,20.83,1.5,25.21,4.48,4.38,2.99,7.71,7.9,9.99,14.73,2.28,6.83,3.71,14.44,4.28,22.81.57,8.38.86,24.84.86,49.39v90.78c0,23.27-.42,38.82-1.25,46.67-.84,7.84-2.29,13.98-4.37,18.41-2.08,4.43-4.64,7.53-7.7,9.29-3.05,1.76-7.66,2.64-13.81,2.64h-32.45V34.42ZM922.03,78.76v170.5c3.71,0,5.99-1.95,6.84-5.84.86-3.9,1.28-14.49,1.28-31.78v-100.7c0-11.74-.14-19.26-.43-22.57-.29-3.31-.94-5.74-1.96-7.28-1.02-1.55-2.93-2.32-5.74-2.32Z"/><path class="cls-1" d="M965.47,34.42h42.9v51.87h-17.17v49.15h16.07v49.31h-16.07v56.99h18.88v51.87h-44.61V34.42Z"/><path class="cls-1" d="M1084,34.42l14.71,259.2h-26.29l-1.38-46.59h-9.2l-1.55,46.59h-26.6l13.12-259.2h37.18ZM1070.37,201.08c-1.3-29.36-2.61-65.65-3.92-108.87-2.62,49.63-4.27,85.92-4.94,108.87h8.86Z"/><path class="cls-1" d="M1160.52,34.42v259.2h-22.55l-13.38-117.83v117.83h-21.51V34.42h21.51l14.42,116.71V34.42h21.51Z"/><path class="cls-1" d="M1196.58,34.42v259.2h-25.73V34.42h25.73Z"/><path class="cls-1" d="M1286.28,34.42v259.2h-22.49l-.03-174.99-8.95,174.99h-15.95l-9.44-170.98-.03,170.98h-22.49V34.42h33.29c.99,15.58,2.01,33.95,3.05,55.1l3.65,65.93,5.91-121.03h33.47Z"/><path class="cls-1" d="M1341.08,34.42l14.71,259.2h-26.29l-1.38-46.59h-9.2l-1.55,46.59h-26.6l13.12-259.2h37.18ZM1327.44,201.08c-1.3-29.36-2.61-65.65-3.92-108.87-2.62,49.63-4.27,85.92-4.94,108.87h8.86Z"/><path class="cls-1" d="M1405.07,34.42v51.87h-15.28v207.33h-25.73V86.29h-15.21v-51.87h56.22Z"/><path class="cls-1" d="M1436.66,34.42v259.2h-25.73V34.42h25.73Z"/><path class="cls-1" d="M1505.77,186.19c0,26.04-.24,44.48-.7,55.31-.47,10.83-1.94,20.73-4.4,29.7-2.46,8.97-5.8,15.85-9.99,20.65-4.2,4.8-9.08,7.2-14.67,7.2s-10.05-2.27-14.27-6.8c-4.22-4.54-7.61-11.34-10.17-20.41-2.57-9.07-4.09-18.94-4.58-29.62-.49-10.67-.73-29.35-.73-56.03v-44.35c0-26.04.23-44.48.7-55.31.47-10.83,1.93-20.73,4.4-29.7,2.46-8.97,5.79-15.85,9.99-20.65,4.2-4.8,9.08-7.2,14.67-7.2,5.29,0,10.05,2.27,14.27,6.8,4.22,4.54,7.61,11.34,10.17,20.41,2.57,9.07,4.09,18.95,4.58,29.62.49,10.67.73,29.35.73,56.03v44.35ZM1480.05,101.02c0-12.06-.25-19.77-.76-23.13-.51-3.36-1.56-5.04-3.15-5.04-1.34,0-2.37,1.36-3.09,4.08s-1.07,10.75-1.07,24.09v121.03c0,15.05.23,24.33.7,27.86.47,3.52,1.56,5.28,3.27,5.28s2.87-2.03,3.36-6.08c.49-4.06.73-13.71.73-28.98v-119.11Z"/><path class="cls-1" d="M1572.81,34.42v259.2h-22.55l-13.38-117.83v117.83h-21.51V34.42h21.51l14.42,116.71V34.42h21.51Z"/></svg>