<?xml version="1.0" encoding="UTF-8"?><svg id="Layer_1" xmlns="http://www.w3.org/2000/svg" width="1055.89" height="271.43" viewBox="0 0 1055.89 271.43"><defs><style>.cls-1{fill:#d37f00;stroke-width:0px;}</style></defs><path class="cls-1" d="M68.7,5.47l20.09,260.49h-35.9l-1.89-46.82h-12.57l-2.11,46.82H0L17.92,5.47h50.78ZM50.08,172.96c-1.78-29.5-3.56-65.97-5.35-109.41-3.58,49.88-5.83,86.35-6.74,109.41h12.09Z"/><path class="cls-1" d="M174.62,5.47v174.09c0,19.74-.33,33.6-1,41.59-.67,7.99-2.64,16.2-5.92,24.62-3.28,8.42-7.61,14.8-12.98,19.15-5.37,4.34-11.7,6.52-18.98,6.52-8.07,0-15.19-2.57-21.36-7.72-6.18-5.15-10.79-11.85-13.85-20.11-3.06-8.26-4.87-16.97-5.42-26.15-.56-9.17-.83-28.45-.83-57.84V5.47h35.13v195.33c0,11.37.32,18.64.96,21.8.64,3.17,1.93,4.75,3.88,4.75,2.22,0,3.66-1.74,4.3-5.23.64-3.48.96-11.72.96-24.7V5.47h35.13Z"/><path class="cls-1" d="M268.83,101.36h-35.13v-23.65c0-14.91-.33-24.24-1-28-.67-3.75-2.25-5.63-4.76-5.63-2.17,0-3.64,1.61-4.42,4.83-.78,3.22-1.17,11.48-1.17,24.78v125.02c0,11.69.39,19.39,1.17,23.09.78,3.7,2.34,5.55,4.67,5.55,2.56,0,4.3-2.09,5.22-6.27s1.38-12.33,1.38-24.46v-30.89h-7.09v-39.58h41.14v139.82h-22.08l-3.25-18.66c-2.39,8.04-5.42,14.08-9.06,18.1-3.65,4.02-7.95,6.03-12.9,6.03-5.9,0-11.43-2.76-16.58-8.29-5.15-5.52-9.06-12.36-11.73-20.51-2.67-8.15-4.34-16.71-5.01-25.66-.67-8.96-1-22.39-1-40.3v-77.39c0-24.88.69-42.96,2.09-54.22,1.39-11.26,5.38-21.58,11.98-30.97,6.59-9.38,15.12-14.08,25.58-14.08s18.83,4.08,25.62,12.23c6.79,8.15,11.21,17.83,13.27,29.04,2.06,11.21,3.09,27.49,3.09,48.83v11.26Z"/><path class="cls-1" d="M362.3,5.47v174.09c0,19.74-.33,33.6-1,41.59-.67,7.99-2.64,16.2-5.92,24.62-3.28,8.42-7.61,14.8-12.98,19.15-5.37,4.34-11.7,6.52-18.98,6.52-8.07,0-15.19-2.57-21.36-7.72-6.18-5.15-10.79-11.85-13.85-20.11-3.06-8.26-4.87-16.97-5.42-26.15-.56-9.17-.83-28.45-.83-57.84V5.47h35.13v195.33c0,11.37.32,18.64.96,21.8.64,3.17,1.93,4.75,3.88,4.75,2.22,0,3.66-1.74,4.3-5.23.64-3.48.96-11.72.96-24.7V5.47h35.13Z"/><path class="cls-1" d="M450.34,84.31h-32.63v-19.31c0-9.01-.42-14.75-1.25-17.22-.83-2.47-2.23-3.7-4.17-3.7-2.12,0-3.71,1.66-4.8,4.99-1.08,3.33-1.63,8.37-1.63,15.13,0,8.69.61,15.24,1.83,19.64,1.16,4.4,4.47,9.71,9.93,15.93,15.64,17.9,25.49,32.58,29.55,44.06,4.06,11.48,6.09,29.98,6.09,55.51,0,18.56-1.13,32.23-3.38,41.03-2.25,8.8-6.61,16.17-13.06,22.12-6.45,5.95-13.96,8.93-22.53,8.93-9.4,0-17.43-3.43-24.08-10.3-6.65-6.86-11-15.61-13.06-26.23-2.06-10.62-3.09-25.69-3.09-45.21v-17.06h32.63v31.7c0,9.76.46,16.04,1.38,18.83.92,2.79,2.55,4.18,4.88,4.18s4.07-1.77,5.22-5.31c1.14-3.54,1.71-8.79,1.71-15.77,0-15.34-1.08-25.37-3.25-30.09-2.23-4.72-7.71-12.6-16.44-23.65-8.73-11.15-14.52-19.25-17.36-24.3-2.84-5.04-5.19-12.01-7.05-20.92-1.86-8.9-2.8-20.27-2.8-34.11,0-19.95,1.32-34.54,3.96-43.76,2.64-9.22,6.91-16.44,12.81-21.64,5.9-5.2,13.02-7.8,21.36-7.8,9.12,0,16.9,2.84,23.32,8.53,6.43,5.69,10.68,12.85,12.77,21.48,2.09,8.64,3.13,23.3,3.13,44v10.3Z"/><path class="cls-1" d="M535.04,5.47v52.13h-20.86v208.36h-35.13V57.6h-20.78V5.47h76.77Z"/><path class="cls-1" d="M578.18,5.47v260.49h-35.13V5.47h35.13Z"/><path class="cls-1" d="M670.73,5.47v260.49h-30.79l-18.28-118.42v118.42h-29.37V5.47h29.37l19.69,117.29V5.47h29.37Z"/><path class="cls-1" d="M684.83,5.47h58.58v52.13h-23.45v49.4h21.95v49.56h-21.95v57.28h25.79v52.13h-60.92V5.47Z"/><path class="cls-1" d="M830.28,84.31h-32.63v-19.31c0-9.01-.42-14.75-1.25-17.22-.83-2.47-2.23-3.7-4.17-3.7-2.11,0-3.71,1.66-4.8,4.99-1.08,3.33-1.63,8.37-1.63,15.13,0,8.69.61,15.24,1.83,19.64,1.16,4.4,4.47,9.71,9.93,15.93,15.64,17.9,25.49,32.58,29.55,44.06,4.06,11.48,6.09,29.98,6.09,55.51,0,18.56-1.13,32.23-3.38,41.03-2.25,8.8-6.61,16.17-13.06,22.12-6.45,5.95-13.96,8.93-22.53,8.93-9.4,0-17.43-3.43-24.08-10.3-6.65-6.86-11-15.61-13.06-26.23-2.06-10.62-3.09-25.69-3.09-45.21v-17.06h32.63v31.7c0,9.76.46,16.04,1.38,18.83.92,2.79,2.54,4.18,4.88,4.18s4.07-1.77,5.22-5.31c1.14-3.54,1.71-8.79,1.71-15.77,0-15.34-1.08-25.37-3.25-30.09-2.23-4.72-7.71-12.6-16.44-23.65-8.74-11.15-14.52-19.25-17.36-24.3-2.84-5.04-5.19-12.01-7.05-20.92-1.86-8.9-2.8-20.27-2.8-34.11,0-19.95,1.32-34.54,3.96-43.76,2.64-9.22,6.91-16.44,12.81-21.64,5.9-5.2,13.02-7.8,21.36-7.8,9.12,0,16.9,2.84,23.32,8.53,6.43,5.69,10.68,12.85,12.77,21.48,2.09,8.64,3.13,23.3,3.13,44v10.3Z"/><path class="cls-1" d="M865.67,212.86v53.1h-25.45v-53.1h25.45Z"/><path class="cls-1" d="M875.76,5.47h26.29c16.97,0,28.44,1.5,34.42,4.51,5.98,3,10.53,7.94,13.64,14.8,3.12,6.87,5.06,14.51,5.84,22.93.78,8.42,1.17,24.97,1.17,49.64v91.23c0,23.39-.57,39.02-1.71,46.9-1.14,7.88-3.13,14.05-5.97,18.5-2.84,4.45-6.34,7.56-10.51,9.33-4.17,1.77-10.46,2.65-18.86,2.65h-44.31V5.47ZM910.9,50.04v171.35c5.06,0,8.18-1.96,9.35-5.87,1.17-3.91,1.75-14.56,1.75-31.94v-101.2c0-11.8-.2-19.36-.58-22.69-.39-3.32-1.28-5.76-2.67-7.32-1.39-1.55-4.01-2.33-7.84-2.33Z"/><path class="cls-1" d="M1053.97,5.47l-20.15,117.61,22.07,142.87h-36.3l-14.23-111.66v111.66h-35.13V5.47h35.13v101.2l15.65-101.2h32.96Z"/></svg>