<?xml version="1.0" encoding="UTF-8"?><svg id="Layer_1" xmlns="http://www.w3.org/2000/svg" width="1389" height="524" viewBox="0 0 1389 524"><defs><style>.cls-1{fill:#bc0000;stroke-width:0px;}</style></defs><path class="cls-1" d="M90.37,10.56l26.43,502.88h-47.23l-2.48-90.39h-16.53l-2.78,90.39H0L23.57,10.56h66.8ZM65.88,333.91c-2.34-56.96-4.69-127.36-7.04-211.22-4.71,96.29-7.67,166.7-8.87,211.22h15.91Z"/><path class="cls-1" d="M229.71,10.56v336.08c0,38.1-.44,64.87-1.32,80.29-.88,15.43-3.48,31.27-7.79,47.52-4.32,16.26-10.01,28.58-17.07,36.96-7.06,8.39-15.39,12.58-24.97,12.58-10.61,0-19.98-4.97-28.1-14.91-8.12-9.94-14.2-22.88-18.22-38.83-4.03-15.94-6.4-32.77-7.14-50.47-.73-17.7-1.1-54.92-1.1-111.66V10.56h46.22v377.08c0,21.95.42,35.98,1.26,42.09.84,6.11,2.54,9.16,5.1,9.16,2.93,0,4.81-3.36,5.65-10.1.84-6.73,1.26-22.62,1.26-47.68V10.56h46.22Z"/><path class="cls-1" d="M353.64,195.68h-46.22v-45.66c0-28.78-.44-46.8-1.32-54.05-.88-7.25-2.96-10.87-6.26-10.87-2.85,0-4.79,3.11-5.82,9.32-1.03,6.21-1.54,22.16-1.54,47.83v241.34c0,22.57.51,37.43,1.54,44.57,1.02,7.14,3.07,10.72,6.15,10.72,3.37,0,5.65-4.04,6.86-12.11s1.81-23.81,1.81-47.21v-59.64h-9.33v-76.41h54.12v269.92h-29.04l-4.27-36.03c-3.15,15.53-7.12,27.18-11.92,34.94-4.8,7.77-10.45,11.65-16.97,11.65-7.77,0-15.03-5.33-21.81-16-6.78-10.66-11.92-23.86-15.44-39.6-3.52-15.73-5.71-32.25-6.59-49.54-.88-17.29-1.32-43.22-1.32-77.81v-149.4c0-48.04.91-82.93,2.74-104.68,1.83-21.74,7.08-41.67,15.75-59.79,8.67-18.12,19.89-27.18,33.65-27.18s24.77,7.87,33.7,23.61c8.93,15.74,14.75,34.43,17.45,56.07,2.71,21.64,4.06,53.07,4.06,94.27v21.74Z"/><path class="cls-1" d="M476.59,10.56v336.08c0,38.1-.44,64.87-1.32,80.29-.88,15.43-3.48,31.27-7.79,47.52-4.32,16.26-10.01,28.58-17.07,36.96-7.06,8.39-15.39,12.58-24.97,12.58-10.61,0-19.98-4.97-28.1-14.91-8.12-9.94-14.2-22.88-18.22-38.83-4.03-15.94-6.4-32.77-7.14-50.47-.73-17.7-1.1-54.92-1.1-111.66V10.56h46.22v377.08c0,21.95.42,35.98,1.26,42.09.84,6.11,2.54,9.16,5.1,9.16,2.93,0,4.81-3.36,5.65-10.1.84-6.73,1.26-22.62,1.26-47.68V10.56h46.22Z"/><path class="cls-1" d="M592.41,162.76h-42.92v-37.27c0-17.39-.55-28.47-1.65-33.24-1.1-4.76-2.93-7.14-5.49-7.14-2.78,0-4.88,3.21-6.31,9.64-1.43,6.43-2.14,16.16-2.14,29.22,0,16.78.8,29.43,2.41,37.92,1.53,8.5,5.88,18.75,13.06,30.75,20.57,34.55,33.53,62.9,38.87,85.06,5.34,22.16,8.01,57.88,8.01,107.16,0,35.83-1.48,62.23-4.45,79.21-2.96,16.98-8.69,31.22-17.18,42.71-8.49,11.49-18.37,17.24-29.64,17.24-12.37,0-22.93-6.63-31.67-19.88-8.75-13.25-14.47-30.13-17.18-50.63-2.71-20.5-4.06-49.59-4.06-87.28v-32.93h42.92v61.19c0,18.85.6,30.96,1.81,36.34,1.21,5.39,3.35,8.08,6.42,8.08s5.36-3.42,6.86-10.25c1.5-6.83,2.25-16.98,2.25-30.44,0-29.61-1.43-48.97-4.28-58.08-2.93-9.11-10.14-24.33-21.63-45.66-11.49-21.53-19.1-37.17-22.83-46.9-3.73-9.73-6.83-23.19-9.28-40.38-2.45-17.19-3.68-39.14-3.68-65.85,0-38.52,1.74-66.67,5.21-84.49,3.48-17.81,9.09-31.73,16.85-41.78,7.76-10.04,17.13-15.06,28.1-15.06,12,0,22.23,5.49,30.68,16.46,8.45,10.98,14.05,24.8,16.8,41.47,2.74,16.67,4.12,44.99,4.12,84.95v19.88Z"/><path class="cls-1" d="M703.83,10.56v100.64h-27.44v402.24h-46.22V111.2h-27.33V10.56h100.99Z"/><path class="cls-1" d="M760.59,10.56v502.88h-46.22V10.56h46.22Z"/><path class="cls-1" d="M882.33,10.56v502.88h-40.51l-24.04-228.61v228.61h-38.64V10.56h38.64l25.91,226.44V10.56h38.64Z"/><path class="cls-1" d="M900.88,10.56h77.06v100.64h-30.85v95.36h28.87v95.67h-28.87v110.58h33.92v100.64h-80.14V10.56Z"/><path class="cls-1" d="M1092.22,162.76h-42.92v-37.27c0-17.39-.55-28.47-1.65-33.24-1.1-4.76-2.93-7.14-5.49-7.14-2.78,0-4.89,3.21-6.31,9.64-1.43,6.43-2.14,16.16-2.14,29.22,0,16.78.8,29.43,2.41,37.92,1.53,8.5,5.88,18.75,13.06,30.75,20.57,34.55,33.53,62.9,38.87,85.06,5.34,22.16,8.01,57.88,8.01,107.16,0,35.83-1.48,62.23-4.45,79.21-2.96,16.98-8.69,31.22-17.18,42.71-8.49,11.49-18.37,17.24-29.64,17.24-12.37,0-22.93-6.63-31.67-19.88-8.75-13.25-14.47-30.13-17.18-50.63-2.71-20.5-4.06-49.59-4.06-87.28v-32.93h42.92v61.19c0,18.85.6,30.96,1.81,36.34,1.21,5.39,3.35,8.08,6.42,8.08s5.36-3.42,6.86-10.25c1.5-6.83,2.25-16.98,2.25-30.44,0-29.61-1.43-48.97-4.28-58.08-2.93-9.11-10.14-24.33-21.63-45.66-11.49-21.53-19.1-37.17-22.83-46.9-3.73-9.73-6.83-23.19-9.28-40.38-2.45-17.19-3.68-39.14-3.68-65.85,0-38.52,1.74-66.67,5.21-84.49,3.48-17.81,9.09-31.73,16.85-41.78,7.76-10.04,17.12-15.06,28.1-15.06,12,0,22.23,5.49,30.68,16.46,8.45,10.98,14.05,24.8,16.8,41.47,2.74,16.67,4.12,44.99,4.12,84.95v19.88Z"/><path class="cls-1" d="M1138.77,410.94v102.5h-33.48v-102.5h33.48Z"/><path class="cls-1" d="M1152.05,10.56h34.58c22.32,0,37.42,2.9,45.28,8.7,7.87,5.8,13.85,15.33,17.95,28.58,4.1,13.25,6.66,28.01,7.68,44.26,1.02,16.26,1.54,48.2,1.54,95.82v176.12c0,45.15-.75,75.32-2.25,90.54-1.5,15.22-4.12,27.13-7.85,35.72-3.73,8.6-8.34,14.6-13.83,18.02-5.49,3.42-13.76,5.13-24.81,5.13h-58.29V10.56ZM1198.26,96.6v330.8c6.66,0,10.76-3.78,12.29-11.34,1.54-7.56,2.31-28.11,2.31-61.66v-195.37c0-22.78-.26-37.38-.77-43.8-.51-6.42-1.68-11.13-3.51-14.13-1.83-3-5.27-4.5-10.32-4.5Z"/><path class="cls-1" d="M1386.48,10.56l-26.51,227.06,29.04,275.82h-47.75l-18.72-215.56v215.56h-46.22V10.56h46.22v195.37l20.58-195.37h43.36Z"/></svg>