<?xml version="1.0" encoding="UTF-8"?><svg id="Layer_1" xmlns="http://www.w3.org/2000/svg" width="768.53" height="720.09" viewBox="0 0 768.53 720.09"><defs><style>.cls-1{fill:#ba0606;stroke-width:0px;}</style></defs><path class="cls-1" d="M373.74,274.94h-157.34v-80.13c0-27.93-1.79-46.87-5.37-56.82-3.58-9.95-10.19-14.93-19.82-14.93s-16.11,4.37-19.41,13.09c-3.3,8.73-4.96,28.28-4.96,58.65v327.84c0,24.79,2.48,43.39,7.43,55.77,4.96,12.4,12.25,18.59,21.89,18.59,11.29,0,18.93-6.46,22.92-19.38,3.99-12.91,5.99-37.35,5.99-73.32v-82.75h148.67c-.28,55.51-1.86,97.15-4.75,124.9-2.89,27.76-12.12,56.22-27.67,85.36-15.56,29.16-35.86,51.15-60.91,65.99-25.06,14.84-56.03,22.26-92.92,22.26-47.08,0-84.39-10.21-111.91-30.64-27.53-20.42-47.01-49.05-58.44-85.89C5.71,566.74,0,514.46,0,446.72v-197.44c0-59,4.68-103.51,14.04-133.54,9.36-30.02,29.32-56.82,59.88-80.39S141.65,0,185.42,0s80.66,11.7,111.5,35.09c30.83,23.39,51.34,52.89,61.53,88.51,10.18,35.61,15.28,86.07,15.28,151.35Z"/><path class="cls-1" d="M768.53,12.57l-78.05,694.95h-218.05L388.6,12.57h148.99l46.96,507.47c3.68-37.33,9.94-128.25,18.81-272.76,4.73-80.67,10.12-158.9,16.18-234.71h148.98Z"/></svg>