<?xml version="1.0" encoding="UTF-8"?><svg id="Layer_1" xmlns="http://www.w3.org/2000/svg" width="1578" height="408" viewBox="0 0 1578 408"><defs><style>.cls-1{fill:#ba0606;stroke-width:0px;}</style></defs><path class="cls-1" d="M67.39,123.97v87.74c0,19.93-.44,34.45-1.31,43.55-.88,9.1-2.7,17.6-5.46,25.51-2.76,7.91-6.09,13.6-9.99,17.06-3.9,3.46-8.26,5.2-13.08,5.2-6.36,0-11.64-1.82-15.84-5.44s-7.56-9.29-10.06-16.98c-2.5-7.69-4.27-15.79-5.33-24.29-1.05-8.5-1.58-22.02-1.58-40.54v-91.81c0-24.15.84-42.25,2.53-54.27,1.69-12.02,5.04-21.66,10.06-28.92,5.02-7.26,11.1-10.89,18.24-10.89,5.83,0,11.04,2.52,15.65,7.56s8.04,11.19,10.32,18.44c2.28,7.26,3.82,15.44,4.63,24.54.81,9.1,1.22,23.62,1.22,43.55ZM40.83,101.87c0-13.97-.27-22.72-.82-26.24-.55-3.52-1.83-5.28-3.85-5.28s-3.28,1.87-3.91,5.61c-.64,3.74-.95,12.38-.95,25.92v128.37c0,15.27.3,24.48.89,27.62.59,3.14,1.87,4.71,3.85,4.71s3.26-1.84,3.88-5.53c.61-3.68.92-11.97.92-24.86V101.87Z"/><path class="cls-1" d="M134.91,34.93v42.08h-32.94v44.68c4.12-12.02,9.42-18.04,15.91-18.04,7.32,0,12.85,5.07,16.6,15.19,3.75,10.13,5.62,29.6,5.62,58.41v37.53c0,18.63-.36,32.31-1.08,41.03-.72,8.72-2.27,16.79-4.63,24.21-2.37,7.42-5.67,13.11-9.89,17.06-4.23,3.95-9.39,5.93-15.48,5.93-6.84,0-12.86-2.95-18.08-8.86-5.22-5.9-8.92-14.71-11.11-26.4-2.19-11.7-3.29-29.79-3.29-54.27v-14.3h26.56v16.41c0,17.01.24,29.08.72,36.23.48,7.15,2.15,10.72,5,10.72,1.31,0,2.38-1.03,3.19-3.09.81-2.06,1.25-4.28,1.31-6.66.07-2.38.14-12.73.23-31.03v-52.16c0-9.86-.42-16.57-1.25-20.15-.83-3.57-2.21-5.36-4.14-5.36-1.23,0-2.26.92-3.09,2.76-.83,1.84-1.37,3.82-1.61,5.93-.24,2.11-.36,7.01-.36,14.7h-26.3l1.12-132.59h57Z"/><path class="cls-1" d="M237.21,131.77h-27.68v-23.89c0-15.06-.26-24.48-.79-28.27-.53-3.79-1.78-5.69-3.75-5.69-1.71,0-2.87,1.62-3.48,4.87-.61,3.25-.92,11.59-.92,25.02v126.25c0,11.81.31,19.58.92,23.32.61,3.74,1.84,5.61,3.68,5.61,2.02,0,3.39-2.11,4.11-6.34s1.08-12.46,1.08-24.7v-31.2h-5.59v-39.97h32.41v141.2h-17.39l-2.56-18.85c-1.89,8.12-4.27,14.22-7.14,18.28-2.87,4.06-6.26,6.09-10.16,6.09-4.65,0-9-2.79-13.06-8.37-4.06-5.58-7.14-12.48-9.24-20.72-2.11-8.23-3.42-16.87-3.95-25.92-.53-9.04-.79-22.61-.79-40.7v-78.16c0-25.13.55-43.38,1.64-54.76,1.09-11.37,4.24-21.8,9.43-31.28,5.19-9.48,11.91-14.22,20.15-14.22s14.84,4.12,20.18,12.35c5.35,8.23,8.83,18.01,10.45,29.33,1.62,11.32,2.43,27.76,2.43,49.31v11.37Z"/><path class="cls-1" d="M247.92,34.93h19.59c13.06,0,21.9,1.25,26.53,3.74,4.62,2.49,8.39,8.86,11.31,19.09,2.91,10.24,4.37,26.57,4.37,48.99,0,20.47-1.03,34.23-3.09,41.27-2.06,7.04-6.11,11.27-12.16,12.67,5.48,3.36,9.16,7.86,11.04,13.49,1.88,5.63,3.06,10.81,3.52,15.52.46,4.71.69,17.69.69,38.92v69.38h-25.71v-87.42c0-14.08-.45-22.8-1.35-26.16-.9-3.36-3.25-5.04-7.07-5.04v118.62h-27.68V34.93ZM275.6,79.94v58.5c3.11,0,5.29-1.06,6.54-3.17s1.87-8.96,1.87-20.55v-14.46c0-8.34-.6-13.81-1.81-16.41-1.21-2.6-3.41-3.9-6.61-3.9Z"/><path class="cls-1" d="M383.36,34.93v175.81c0,19.93-.26,33.93-.79,42-.53,8.07-2.08,16.36-4.67,24.86-2.59,8.51-5.99,14.95-10.22,19.34-4.23,4.39-9.22,6.58-14.96,6.58-6.36,0-11.97-2.6-16.83-7.8-4.87-5.2-8.5-11.97-10.91-20.31-2.41-8.34-3.84-17.14-4.27-26.4-.44-9.26-.66-28.73-.66-58.41V34.93h27.68v197.26c0,11.48.25,18.82.76,22.02.5,3.2,1.52,4.79,3.06,4.79,1.75,0,2.88-1.76,3.39-5.28.5-3.52.76-11.83.76-24.94V34.93h27.68Z"/><path class="cls-1" d="M455.87,34.93v263.07h-24.26l-14.4-119.59v119.59h-23.14V34.93h23.14l15.52,118.45V34.93h23.14Z"/><path class="cls-1" d="M466.98,34.93h20.71c13.37,0,22.41,1.52,27.12,4.55,4.71,3.03,8.29,8.02,10.75,14.95,2.45,6.93,3.99,14.65,4.6,23.15.61,8.51.92,25.21.92,50.13v92.13c0,23.62-.45,39.4-1.35,47.37-.9,7.96-2.47,14.19-4.7,18.69-2.24,4.5-5,7.64-8.28,9.42-3.29,1.79-8.24,2.68-14.86,2.68h-34.91V34.93ZM494.66,79.94v173.05c3.99,0,6.44-1.98,7.36-5.93.92-3.95,1.38-14.71,1.38-32.25v-102.2c0-11.92-.15-19.55-.46-22.91-.31-3.36-1.01-5.82-2.1-7.39-1.1-1.57-3.16-2.36-6.18-2.36Z"/><path class="cls-1" d="M569.08,34.93v210.42h16.83v52.65h-44.51V34.93h27.68Z"/><path class="cls-1" d="M682.76,34.93v52.65h-18.61v49.88h17.49v50.05h-17.49v57.85h19.92v52.65h-47.6v-47.28h-15.87l-4.51,47.28h-26.43l28.08-263.07h65.01ZM636.47,84l-11.77,120.08h11.77v-120.08Z"/><path class="cls-1" d="M755.54,131.77h-27.68v-23.89c0-15.06-.26-24.48-.79-28.27-.53-3.79-1.78-5.69-3.75-5.69-1.71,0-2.87,1.62-3.48,4.87-.61,3.25-.92,11.59-.92,25.02v126.25c0,11.81.31,19.58.92,23.32.61,3.74,1.84,5.61,3.68,5.61,2.02,0,3.39-2.11,4.11-6.34s1.08-12.46,1.08-24.7v-31.2h-5.59v-39.97h32.41v141.2h-17.39l-2.56-18.85c-1.89,8.12-4.27,14.22-7.14,18.28-2.87,4.06-6.26,6.09-10.16,6.09-4.65,0-9-2.79-13.06-8.37-4.06-5.58-7.14-12.48-9.24-20.72-2.11-8.23-3.42-16.87-3.95-25.92-.53-9.04-.79-22.61-.79-40.7v-78.16c0-25.13.55-43.38,1.64-54.76,1.09-11.37,4.24-21.8,9.43-31.28,5.19-9.48,11.91-14.22,20.15-14.22s14.84,4.12,20.18,12.35c5.35,8.23,8.83,18.01,10.45,29.33,1.62,11.32,2.43,27.76,2.43,49.31v11.37Z"/><path class="cls-1" d="M829.76,131.77h-27.68v-23.89c0-15.06-.26-24.48-.79-28.27-.53-3.79-1.78-5.69-3.75-5.69-1.71,0-2.87,1.62-3.49,4.87-.61,3.25-.92,11.59-.92,25.02v126.25c0,11.81.31,19.58.92,23.32.61,3.74,1.84,5.61,3.68,5.61,2.01,0,3.39-2.11,4.11-6.34.72-4.22,1.08-12.46,1.08-24.7v-31.2h-5.59v-39.97h32.41v141.2h-17.39l-2.56-18.85c-1.89,8.12-4.27,14.22-7.14,18.28-2.87,4.06-6.26,6.09-10.16,6.09-4.65,0-9-2.79-13.06-8.37-4.06-5.58-7.14-12.48-9.24-20.72-2.11-8.23-3.42-16.87-3.95-25.92-.53-9.04-.79-22.61-.79-40.7v-78.16c0-25.13.55-43.38,1.64-54.76,1.09-11.37,4.24-21.8,9.43-31.28,5.19-9.48,11.91-14.22,20.15-14.22s14.84,4.12,20.18,12.35c5.35,8.23,8.83,18.01,10.45,29.33,1.62,11.32,2.43,27.76,2.43,49.31v11.37Z"/><path class="cls-1" d="M840.48,34.93h46.15v52.65h-18.47v49.88h17.29v50.05h-17.29v57.85h20.31v52.65h-47.99V34.93Z"/><path class="cls-1" d="M958.23,34.93v263.07h-24.26l-14.4-119.59v119.59h-23.14V34.93h23.14l15.52,118.45V34.93h23.14Z"/><path class="cls-1" d="M969.34,34.93h20.71c13.37,0,22.41,1.52,27.12,4.55,4.71,3.03,8.29,8.02,10.75,14.95,2.45,6.93,3.99,14.65,4.6,23.15.61,8.51.92,25.21.92,50.13v92.13c0,23.62-.45,39.4-1.35,47.37s-2.46,14.19-4.7,18.69c-2.24,4.5-5,7.64-8.28,9.42-3.29,1.79-8.24,2.68-14.86,2.68h-34.91V34.93ZM997.02,79.94v173.05c3.99,0,6.44-1.98,7.36-5.93.92-3.95,1.38-14.71,1.38-32.25v-102.2c0-11.92-.15-19.55-.46-22.91-.31-3.36-1.01-5.82-2.1-7.39-1.1-1.57-3.16-2.36-6.18-2.36Z"/><path class="cls-1" d="M1043.76,34.93h46.15v52.65h-18.47v49.88h17.29v50.05h-17.29v57.85h20.31v52.65h-47.99V34.93Z"/><path class="cls-1" d="M1151.12,34.93v263.07h-27.68V34.93h27.68Z"/><path class="cls-1" d="M1224.03,34.93v263.07h-24.26l-14.4-119.59v119.59h-23.14V34.93h23.14l15.52,118.45V34.93h23.14Z"/><path class="cls-1" d="M1235.14,34.93h20.71c13.37,0,22.41,1.52,27.12,4.55,4.71,3.03,8.29,8.02,10.75,14.95,2.45,6.93,3.99,14.65,4.6,23.15.61,8.51.92,25.21.92,50.13v92.13c0,23.62-.45,39.4-1.35,47.37s-2.46,14.19-4.7,18.69c-2.24,4.5-5,7.64-8.28,9.42-3.29,1.79-8.24,2.68-14.86,2.68h-34.91V34.93ZM1262.82,79.94v173.05c3.99,0,6.44-1.98,7.36-5.93.92-3.95,1.38-14.71,1.38-32.25v-102.2c0-11.92-.15-19.55-.46-22.91-.31-3.36-1.01-5.82-2.1-7.39-1.1-1.57-3.16-2.36-6.18-2.36Z"/><path class="cls-1" d="M1373.21,34.93v263.07h-27.68v-110.49h-8.28v110.49h-27.68V34.93h27.68v94.08h8.28V34.93h27.68Z"/><path class="cls-1" d="M1447.56,188.97c0,26.43-.25,45.15-.76,56.14-.5,11-2.08,21.04-4.73,30.14-2.65,9.1-6.24,16.09-10.75,20.96-4.52,4.87-9.77,7.31-15.78,7.31s-10.81-2.3-15.35-6.91c-4.54-4.6-8.18-11.51-10.95-20.72-2.76-9.21-4.4-19.23-4.93-30.06-.53-10.83-.79-29.79-.79-56.87v-45.01c0-26.43.25-45.14.76-56.14.5-10.99,2.08-21.04,4.73-30.14,2.65-9.1,6.23-16.09,10.75-20.96,4.51-4.88,9.77-7.31,15.78-7.31s10.82,2.3,15.35,6.91c4.54,4.61,8.19,11.51,10.95,20.72,2.76,9.21,4.41,19.23,4.93,30.06.53,10.83.79,29.79.79,56.87v45.01ZM1419.88,102.52c0-12.24-.27-20.07-.82-23.48-.55-3.41-1.68-5.12-3.39-5.12-1.45,0-2.55,1.38-3.32,4.14-.77,2.76-1.15,10.91-1.15,24.45v122.84c0,15.27.25,24.7.76,28.27.5,3.58,1.68,5.36,3.52,5.36s3.09-2.06,3.62-6.17c.53-4.12.79-13.92.79-29.41v-120.89Z"/><path class="cls-1" d="M1485.56,34.93v210.42h16.83v52.65h-44.51V34.93h27.68Z"/><path class="cls-1" d="M1509.1,34.93h20.71c13.37,0,22.41,1.52,27.12,4.55,4.71,3.03,8.29,8.02,10.75,14.95,2.45,6.93,3.99,14.65,4.6,23.15.61,8.51.92,25.21.92,50.13v92.13c0,23.62-.45,39.4-1.35,47.37s-2.46,14.19-4.7,18.69c-2.24,4.5-5,7.64-8.28,9.42-3.29,1.79-8.24,2.68-14.86,2.68h-34.91V34.93ZM1536.78,79.94v173.05c3.99,0,6.44-1.98,7.36-5.93.92-3.95,1.38-14.71,1.38-32.25v-102.2c0-11.92-.15-19.55-.46-22.91-.31-3.36-1.01-5.82-2.1-7.39-1.1-1.57-3.16-2.36-6.18-2.36Z"/></svg>