<?xml version="1.0" encoding="UTF-8"?><svg id="Layer_1" xmlns="http://www.w3.org/2000/svg" width="1387.19" height="522.23" viewBox="0 0 1387.19 522.23"><defs><style>.cls-1{fill:#ba0606;stroke-width:0px;}</style></defs><path class="cls-1" d="M0,10.53h69.53c18.8,0,33.26,2.79,43.38,8.36,10.11,5.57,17.71,13.62,22.79,24.15,5.08,10.52,8.53,23.27,10.33,38.23,1.8,14.97,2.71,38.13,2.71,69.5v43.65c0,31.99-1.75,55.31-5.25,69.96-3.5,14.66-9.92,25.9-19.27,33.74-9.35,7.85-21.56,11.76-36.65,11.76h-18.53v201.83H0V10.53ZM69.04,96.27v127.54c1.97.21,3.66.31,5.08.31,6.34,0,10.74-2.94,13.2-8.82,2.46-5.88,3.69-18.11,3.69-36.68v-41.17c0-17.13-1.42-28.27-4.26-33.43-2.84-5.16-8.75-7.74-17.71-7.74Z"/><path class="cls-1" d="M326.34,303.99c0,50.36-.63,86.01-1.89,106.95-1.26,20.95-5.19,40.09-11.81,57.42-6.62,17.34-15.55,30.65-26.81,39.93-11.26,9.29-24.38,13.93-39.36,13.93s-26.98-4.39-38.29-13.16c-11.31-8.77-20.42-21.93-27.3-39.47-6.89-17.54-10.99-36.63-12.3-57.27-1.31-20.63-1.97-56.75-1.97-108.35v-85.75c0-50.35.63-86,1.89-106.95,1.26-20.94,5.19-40.09,11.81-57.42,6.61-17.34,15.55-30.65,26.81-39.93,11.26-9.29,24.38-13.93,39.36-13.93s26.98,4.39,38.29,13.16c11.32,8.77,20.42,21.93,27.3,39.47,6.89,17.54,10.99,36.63,12.3,57.27,1.31,20.64,1.97,56.76,1.97,108.35v85.75ZM257.3,139.3c0-23.32-.68-38.23-2.05-44.73-1.37-6.5-4.18-9.75-8.45-9.75-3.61,0-6.37,2.63-8.28,7.89-1.91,5.26-2.87,20.79-2.87,46.59v234.03c0,29.1.63,47.05,1.89,53.86,1.26,6.81,4.18,10.22,8.77,10.22s7.71-3.92,9.02-11.76c1.31-7.84,1.97-26.52,1.97-56.03v-230.31Z"/><path class="cls-1" d="M352.09,10.53h48.87c32.58,0,54.63,2.38,66.17,7.12,11.53,4.75,20.93,16.87,28.21,36.37,7.27,19.5,10.91,50.61,10.91,93.33,0,39-2.57,65.22-7.71,78.63-5.14,13.42-15.25,21.47-30.34,24.15,13.66,6.4,22.85,14.97,27.55,25.69,4.7,10.73,7.63,20.58,8.77,29.56s1.72,33.69,1.72,74.14v132.18h-64.12v-166.54c0-26.83-1.12-43.44-3.36-49.84-2.24-6.39-8.12-9.6-17.63-9.6v225.98h-69.04V10.53ZM421.12,96.27v111.44c7.76,0,13.2-2.01,16.32-6.04,3.12-4.02,4.67-17.07,4.67-39.16v-27.55c0-15.89-1.5-26.31-4.51-31.27-3.01-4.95-8.5-7.43-16.48-7.43Z"/><path class="cls-1" d="M672.03,10.53v100.3h-41v400.88h-69.04V110.82h-40.83V10.53h150.87Z"/><path class="cls-1" d="M687.77,10.53h116.92v100.3h-47.88v95.04h42.64v95.35h-42.64v210.5h-69.04V10.53Z"/><path class="cls-1" d="M979.18,303.99c0,50.36-.63,86.01-1.89,106.95-1.26,20.95-5.19,40.09-11.81,57.42-6.62,17.34-15.55,30.65-26.81,39.93-11.26,9.29-24.38,13.93-39.36,13.93s-26.98-4.39-38.29-13.16c-11.32-8.77-20.42-21.93-27.3-39.47-6.89-17.54-10.99-36.63-12.3-57.27-1.31-20.63-1.97-56.75-1.97-108.35v-85.75c0-50.35.63-86,1.89-106.95,1.25-20.94,5.19-40.09,11.81-57.42,6.61-17.34,15.55-30.65,26.81-39.93,11.26-9.29,24.38-13.93,39.36-13.93s26.98,4.39,38.29,13.16c11.32,8.77,20.42,21.93,27.3,39.47,6.89,17.54,10.99,36.63,12.3,57.27,1.31,20.64,1.97,56.76,1.97,108.35v85.75ZM910.14,139.3c0-23.32-.68-38.23-2.05-44.73-1.37-6.5-4.18-9.75-8.45-9.75-3.61,0-6.37,2.63-8.28,7.89-1.91,5.26-2.87,20.79-2.87,46.59v234.03c0,29.1.63,47.05,1.89,53.86,1.26,6.81,4.18,10.22,8.77,10.22s7.71-3.92,9.02-11.76c1.31-7.84,1.97-26.52,1.97-56.03v-230.31Z"/><path class="cls-1" d="M1073.97,10.53v400.88h41.98v100.3h-111.02V10.53h69.04Z"/><path class="cls-1" d="M1201.71,10.53v501.18h-69.04V10.53h69.04Z"/><path class="cls-1" d="M1387.19,303.99c0,50.36-.63,86.01-1.89,106.95-1.26,20.95-5.19,40.09-11.81,57.42-6.62,17.34-15.55,30.65-26.81,39.93-11.26,9.29-24.38,13.93-39.36,13.93s-26.98-4.39-38.29-13.16c-11.32-8.77-20.42-21.93-27.3-39.47-6.89-17.54-10.99-36.63-12.3-57.27-1.31-20.63-1.97-56.75-1.97-108.35v-85.75c0-50.35.63-86,1.89-106.95,1.25-20.94,5.19-40.09,11.81-57.42,6.61-17.34,15.55-30.65,26.81-39.93,11.26-9.29,24.38-13.93,39.36-13.93s26.98,4.39,38.29,13.16c11.32,8.77,20.42,21.93,27.3,39.47,6.89,17.54,10.99,36.63,12.3,57.27,1.31,20.64,1.97,56.76,1.97,108.35v85.75ZM1318.15,139.3c0-23.32-.68-38.23-2.05-44.73-1.37-6.5-4.18-9.75-8.45-9.75-3.61,0-6.37,2.63-8.28,7.89-1.91,5.26-2.87,20.79-2.87,46.59v234.03c0,29.1.63,47.05,1.89,53.86,1.26,6.81,4.18,10.22,8.77,10.22s7.71-3.92,9.02-11.76c1.31-7.84,1.97-26.52,1.97-56.03v-230.31Z"/></svg>