<?xml version="1.0" encoding="UTF-8"?><svg id="Layer_1" xmlns="http://www.w3.org/2000/svg" width="1578" height="404" viewBox="0 0 1578 404"><defs><style>.cls-1{fill:#ba0606;stroke-width:0px;}</style></defs><path class="cls-1" d="M74.82,122.76v86.88c0,19.74-.49,34.11-1.46,43.12-.97,9.01-2.99,17.43-6.06,25.26-3.07,7.83-6.76,13.46-11.09,16.89-4.33,3.43-9.17,5.15-14.52,5.15-7.06,0-12.92-1.8-17.59-5.39-4.67-3.59-8.39-9.2-11.17-16.81-2.77-7.61-4.74-15.63-5.91-24.05-1.17-8.42-1.75-21.8-1.75-40.14v-90.9c0-23.92.94-41.83,2.81-53.74,1.87-11.91,5.6-21.45,11.17-28.64,5.57-7.19,12.32-10.78,20.25-10.78,6.47,0,12.26,2.49,17.37,7.48s8.93,11.08,11.46,18.26c2.53,7.19,4.25,15.29,5.15,24.29.9,9.01,1.35,23.38,1.35,43.12ZM45.33,100.88c0-13.84-.3-22.5-.91-25.98-.61-3.48-2.03-5.23-4.27-5.23s-3.64,1.85-4.34,5.55c-.71,3.7-1.06,12.26-1.06,25.66v127.11c0,15.12.33,24.24.99,27.35.66,3.11,2.08,4.67,4.27,4.67s3.62-1.82,4.31-5.47c.68-3.65,1.02-11.85,1.02-24.62V100.88Z"/><path class="cls-1" d="M140.8,147.45c4.48,3.33,7.81,8.77,10,16.34,2.19,7.57,3.28,25.3,3.28,53.2,0,20.71-1.07,36.78-3.21,48.21-2.14,11.43-5.84,20.12-11.09,26.08-5.26,5.96-12,8.93-20.22,8.93-9.34,0-16.68-3.46-22.01-10.38-5.33-6.92-8.83-15.39-10.51-25.42-1.68-10.03-2.52-27.43-2.52-52.21v-20.59h29.49v42.31c0,11.26.3,18.42.91,21.48.61,3.06,1.96,4.58,4.05,4.58,2.29,0,3.8-1.93,4.53-5.79s1.09-13.94,1.09-30.25v-18.02c0-9.98-.51-17.27-1.53-21.88-1.02-4.61-2.53-7.64-4.53-9.09-2-1.45-5.86-2.28-11.61-2.49v-37.81c7.01,0,11.34-.59,12.99-1.77,1.65-1.18,2.85-3.75,3.58-7.72.73-3.97,1.09-10.19,1.09-18.66v-14.48c0-9.12-.43-15.12-1.28-18.02-.85-2.9-2.18-4.34-3.98-4.34-2.04,0-3.44,1.53-4.2,4.59-.76,3.06-1.13,9.57-1.13,19.55v21.4h-29.49v-22.2c0-24.88,2.58-41.7,7.74-50.44,5.16-8.74,13.36-13.11,24.6-13.11,14.06,0,23.6,6.06,28.61,18.17,5.01,12.11,7.52,28.94,7.52,50.49,0,14.58-.9,25.11-2.7,31.6-1.8,6.49-4.96,12.41-9.49,17.77Z"/><path class="cls-1" d="M262.4,130.48h-30.73v-23.65c0-14.91-.29-24.24-.88-28-.58-3.75-1.97-5.63-4.16-5.63-1.9,0-3.19,1.61-3.87,4.83-.68,3.22-1.02,11.48-1.02,24.78v125.01c0,11.69.34,19.39,1.02,23.09.68,3.7,2.04,5.55,4.09,5.55,2.24,0,3.76-2.09,4.56-6.28.8-4.18,1.2-12.33,1.2-24.46v-30.89h-6.2v-39.58h35.98v139.82h-19.31l-2.84-18.66c-2.09,8.04-4.74,14.08-7.93,18.1-3.19,4.02-6.95,6.03-11.29,6.03-5.16,0-10-2.76-14.5-8.29-4.5-5.52-7.93-12.36-10.26-20.51-2.34-8.15-3.8-16.71-4.38-25.66-.58-8.96-.88-22.39-.88-40.3v-77.39c0-24.88.61-42.96,1.82-54.22,1.22-11.26,4.71-21.58,10.47-30.97,5.77-9.38,13.22-14.08,22.37-14.08s16.47,4.08,22.41,12.23c5.94,8.15,9.8,17.83,11.61,29.04,1.8,11.21,2.7,27.49,2.7,48.83v11.26Z"/><path class="cls-1" d="M274.3,34.59h21.75c14.5,0,24.32,1.23,29.45,3.7,5.13,2.47,9.32,8.77,12.55,18.91,3.24,10.14,4.85,26.31,4.85,48.51,0,20.27-1.14,33.9-3.43,40.87-2.29,6.97-6.79,11.16-13.5,12.55,6.08,3.33,10.17,7.78,12.26,13.35,2.09,5.58,3.39,10.7,3.9,15.37.51,4.67.77,17.51.77,38.53v68.7h-28.54v-86.56c0-13.94-.5-22.58-1.5-25.9-1-3.32-3.61-4.99-7.85-4.99v117.45h-30.73V34.59ZM305.03,79.15v57.92c3.45,0,5.88-1.05,7.26-3.14,1.39-2.09,2.08-8.87,2.08-20.35v-14.32c0-8.26-.67-13.68-2.01-16.25-1.34-2.57-3.78-3.86-7.34-3.86Z"/><path class="cls-1" d="M424.66,34.59v174.09c0,19.74-.29,33.6-.88,41.59-.58,7.99-2.31,16.2-5.18,24.62-2.87,8.42-6.65,14.8-11.35,19.15-4.7,4.34-10.23,6.52-16.61,6.52-7.06,0-13.28-2.57-18.69-7.72-5.4-5.15-9.44-11.85-12.12-20.11-2.68-8.26-4.26-16.97-4.74-26.15-.49-9.17-.73-28.45-.73-57.84V34.59h30.73v195.32c0,11.37.28,18.64.84,21.8.56,3.17,1.69,4.75,3.39,4.75,1.95,0,3.2-1.74,3.76-5.23.56-3.48.84-11.72.84-24.7V34.59h30.73Z"/><path class="cls-1" d="M505.17,34.59v260.49h-26.93l-15.99-118.42v118.42h-25.69V34.59h25.69l17.23,117.29V34.59h25.69Z"/><path class="cls-1" d="M517.51,34.59h22.99c14.84,0,24.88,1.5,30.11,4.5,5.23,3,9.21,7.94,11.93,14.8,2.72,6.87,4.43,14.51,5.11,22.93.68,8.42,1.02,24.97,1.02,49.64v91.23c0,23.38-.5,39.02-1.5,46.9-1,7.88-2.74,14.05-5.22,18.5-2.48,4.45-5.55,7.56-9.2,9.33-3.65,1.77-9.15,2.65-16.5,2.65h-38.76V34.59ZM548.24,79.15v171.35c4.43,0,7.15-1.96,8.17-5.87,1.02-3.91,1.53-14.56,1.53-31.94v-101.2c0-11.8-.17-19.36-.51-22.69-.34-3.32-1.12-5.76-2.34-7.32-1.22-1.55-3.5-2.33-6.86-2.33Z"/><path class="cls-1" d="M630.86,34.59v208.36h18.69v52.13h-49.42V34.59h30.73Z"/><path class="cls-1" d="M757.07,34.59v52.13h-20.66v49.39h19.42v49.56h-19.42v57.28h22.12v52.13h-52.85v-46.82h-17.62l-5,46.82h-29.34l31.18-260.49h72.18ZM705.68,83.18l-13.06,118.9h13.06v-118.9Z"/><path class="cls-1" d="M837.87,130.48h-30.73v-23.65c0-14.91-.29-24.24-.88-28-.58-3.75-1.97-5.63-4.16-5.63-1.9,0-3.19,1.61-3.87,4.83-.68,3.22-1.02,11.48-1.02,24.78v125.01c0,11.69.34,19.39,1.02,23.09.68,3.7,2.04,5.55,4.09,5.55,2.24,0,3.76-2.09,4.56-6.28.8-4.18,1.2-12.33,1.2-24.46v-30.89h-6.2v-39.58h35.98v139.82h-19.31l-2.84-18.66c-2.09,8.04-4.74,14.08-7.93,18.1s-6.95,6.03-11.29,6.03c-5.16,0-10-2.76-14.5-8.29-4.5-5.52-7.93-12.36-10.26-20.51-2.34-8.15-3.8-16.71-4.38-25.66-.58-8.96-.88-22.39-.88-40.3v-77.39c0-24.88.61-42.96,1.82-54.22,1.22-11.26,4.71-21.58,10.47-30.97,5.77-9.38,13.22-14.08,22.37-14.08s16.47,4.08,22.41,12.23c5.94,8.15,9.8,17.83,11.61,29.04,1.8,11.21,2.7,27.49,2.7,48.83v11.26Z"/><path class="cls-1" d="M920.27,130.48h-30.73v-23.65c0-14.91-.29-24.24-.88-28-.58-3.75-1.97-5.63-4.16-5.63-1.9,0-3.19,1.61-3.87,4.83-.68,3.22-1.02,11.48-1.02,24.78v125.01c0,11.69.34,19.39,1.02,23.09.68,3.7,2.04,5.55,4.09,5.55,2.24,0,3.76-2.09,4.56-6.28.8-4.18,1.2-12.33,1.2-24.46v-30.89h-6.2v-39.58h35.98v139.82h-19.31l-2.84-18.66c-2.09,8.04-4.74,14.08-7.93,18.1s-6.95,6.03-11.29,6.03c-5.16,0-10-2.76-14.5-8.29-4.5-5.52-7.92-12.36-10.26-20.51-2.34-8.15-3.8-16.71-4.38-25.66-.58-8.96-.88-22.39-.88-40.3v-77.39c0-24.88.61-42.96,1.82-54.22,1.22-11.26,4.71-21.58,10.47-30.97,5.77-9.38,13.22-14.08,22.37-14.08s16.47,4.08,22.41,12.23c5.94,8.15,9.8,17.83,11.61,29.04,1.8,11.21,2.7,27.49,2.7,48.83v11.26Z"/><path class="cls-1" d="M932.17,34.59h51.24v52.13h-20.51v49.39h19.2v49.56h-19.2v57.28h22.55v52.13h-53.28V34.59Z"/><path class="cls-1" d="M1062.9,34.59v260.49h-26.93l-15.99-118.42v118.42h-25.69V34.59h25.69l17.23,117.29V34.59h25.69Z"/><path class="cls-1" d="M1075.24,34.59h22.99c14.84,0,24.88,1.5,30.11,4.5,5.23,3,9.21,7.94,11.93,14.8,2.72,6.87,4.43,14.51,5.11,22.93.68,8.42,1.02,24.97,1.02,49.64v91.23c0,23.38-.5,39.02-1.5,46.9-1,7.88-2.74,14.05-5.22,18.5-2.48,4.45-5.55,7.56-9.2,9.33-3.65,1.77-9.15,2.65-16.5,2.65h-38.76V34.59ZM1105.96,79.15v171.35c4.43,0,7.15-1.96,8.18-5.87,1.02-3.91,1.53-14.56,1.53-31.94v-101.2c0-11.8-.17-19.36-.51-22.69-.34-3.32-1.12-5.76-2.34-7.32-1.22-1.55-3.5-2.33-6.86-2.33Z"/><path class="cls-1" d="M1157.86,34.59h51.24v52.13h-20.51v49.39h19.2v49.56h-19.2v57.28h22.55v52.13h-53.28V34.59Z"/><path class="cls-1" d="M1316.18,34.59v174.09c0,19.74-.29,33.6-.88,41.59-.58,7.99-2.31,16.2-5.18,24.62-2.87,8.42-6.66,14.8-11.35,19.15-4.7,4.34-10.23,6.52-16.61,6.52-7.06,0-13.28-2.57-18.69-7.72-5.4-5.15-9.44-11.85-12.12-20.11-2.68-8.26-4.26-16.97-4.75-26.15s-.73-28.45-.73-57.84V34.59h30.73v195.32c0,11.37.28,18.64.84,21.8.56,3.17,1.69,4.75,3.39,4.75,1.95,0,3.2-1.74,3.76-5.23.56-3.48.84-11.72.84-24.7V34.59h30.73Z"/><path class="cls-1" d="M1390.38,34.59l-10.8,115.2,16.28,145.29h-28.47c-3.4-25.97-6.52-57.61-9.34-94.93-.77,16.53-1.85,34.01-3.24,52.45l-2.89,42.47h-29.93l11.17-145.29-11.17-115.2h29.71c.54,7.17,1.61,19.13,3.2,35.87,1.29,12.76,2.34,24.5,3.15,35.25l6.57-71.11h25.77Z"/><path class="cls-1" d="M1452.26,29.6l-34.96,270.46h-22.33l35.18-270.46h22.11Z"/><path class="cls-1" d="M1529.17,34.59v174.09c0,19.74-.29,33.6-.88,41.59-.58,7.99-2.31,16.2-5.18,24.62-2.87,8.42-6.66,14.8-11.35,19.15-4.7,4.34-10.23,6.52-16.61,6.52-7.06,0-13.28-2.57-18.69-7.72-5.4-5.15-9.44-11.85-12.12-20.11-2.68-8.26-4.26-16.97-4.75-26.15s-.73-28.45-.73-57.84V34.59h30.73v195.32c0,11.37.28,18.64.84,21.8.56,3.17,1.69,4.75,3.39,4.75,1.95,0,3.2-1.74,3.76-5.23.56-3.48.84-11.72.84-24.7V34.59h30.73Z"/><path class="cls-1" d="M1571.79,34.59v260.49h-30.73V34.59h30.73Z"/></svg>